<svg width="106" height="126" viewBox="0 0 106 126" fill="none" xmlns="http://www.w3.org/2000/svg">
<circle cx="55" cy="75" r="51" fill="#D4CAE1"/>
<g clip-path="url(#clip0_18:1027)">
<path d="M57.09 66.0894V61.5106H52.2605V66.0894C52.2605 75.1807 46.5427 82.5791 39.5135 82.5791H69.837C62.8078 82.5791 57.09 75.1807 57.09 66.0894Z" fill="#F4CD0C"/>
<path d="M59.9517 59.3288H49.397V68.4899H59.9517V59.3288Z" fill="#E29418"/>
<path d="M69.8351 82.5791H39.5117V85.6745H69.8351V82.5791Z" fill="#E29418"/>
<path d="M33.3139 18.7157C33.3139 19.0723 33.301 19.427 33.301 19.7854C33.301 45.1514 42.8645 65.6978 54.6753 65.6978C66.4861 65.6978 76.0495 45.1422 76.0495 19.7854C76.0495 19.427 76.0404 19.0723 76.0367 18.7157H33.3139Z" fill="#F4CD0C"/>
<path d="M80.3291 28.5V33.2901C80.3238 38.2887 78.3346 43.0811 74.7981 46.6156C71.2616 50.1502 66.4666 52.1382 61.4653 52.1436H47.8852C42.8838 52.1382 38.0889 50.1502 34.5524 46.6156C31.0159 43.0811 29.0267 38.2887 29.0214 33.2901V28.5H80.3328H80.3291ZM84.0111 24.8237H25.3505V33.279C25.349 36.2377 25.9308 39.1676 27.0627 41.9014C28.1945 44.6352 29.8541 47.1194 31.9468 49.2119C34.0395 51.3045 36.5242 52.9645 39.259 54.097C41.9937 55.2296 44.925 55.8125 47.8852 55.8125H61.4653C64.4246 55.8125 67.3549 55.2299 70.0889 54.0981C72.823 52.9662 75.3072 51.3072 77.3997 49.2158C79.4923 47.1244 81.1522 44.6416 82.2847 41.909C83.4171 39.1765 84 36.2478 84 33.2901V24.8348L84.0111 24.8237Z" fill="#F4CD0C"/>
<path d="M41.6928 19.7854C41.6928 19.427 41.6928 19.0723 41.6928 18.7157H33.3065C33.3065 19.0723 33.2936 19.427 33.2936 19.7854C33.2936 45.1514 42.857 65.6978 54.6678 65.6978C47.5026 65.6978 41.6928 45.1422 41.6928 19.7854Z" fill="#FAEC0F"/>
<path d="M77.8407 16.6276H31.5206V20.8056H77.8407V16.6276Z" fill="#F4CD0C"/>
<path d="M40.6224 16.6276H33.9427V20.8056H40.6224V16.6276Z" fill="#FAEC0F"/>
<path d="M59.9902 42.488H57.5847V29.4595C57.5847 29.3927 57.5581 29.3286 57.5109 29.2814C57.4636 29.2342 57.3995 29.2076 57.3327 29.2076H52.0176C51.9508 29.2076 51.8867 29.2342 51.8395 29.2814C51.7922 29.3286 51.7657 29.3927 51.7657 29.4595C51.7647 30.0968 51.511 30.7078 51.06 31.1585C50.6091 31.6091 49.9978 31.8627 49.3601 31.8637C49.2933 31.8637 49.2292 31.8902 49.1819 31.9375C49.1347 31.9847 49.1082 32.0487 49.1082 32.1155V34.7716C49.1082 34.8384 49.1347 34.9025 49.1819 34.9497C49.2292 34.9969 49.2933 35.0234 49.3601 35.0234C50.195 35.0219 51.0183 34.8275 51.7657 34.4555V42.488H49.3601C49.2933 42.488 49.2292 42.5145 49.1819 42.5618C49.1347 42.609 49.1082 42.673 49.1082 42.7398V45.3977C49.1082 45.4645 49.1347 45.5286 49.1819 45.5758C49.2292 45.623 49.2933 45.6496 49.3601 45.6496H59.9902C60.0571 45.6496 60.1211 45.623 60.1684 45.5758C60.2156 45.5286 60.2422 45.4645 60.2422 45.3977V42.7398C60.2422 42.673 60.2156 42.609 60.1684 42.5618C60.1211 42.5145 60.0571 42.488 59.9902 42.488Z" fill="#E29418"/>
<path d="M75.3929 89.9536H33.9557L37.6266 85.6745H71.722L75.3929 89.9536Z" fill="#444444"/>
<path d="M77.8408 89.9536H31.5078V107.179H77.8408V89.9536Z" fill="#333333"/>
<path d="M79.9319 107.179H29.4186V111H79.9319V107.179Z" fill="#444444"/>
<path d="M74.1699 93.6225H35.1787V103.508H74.1699V93.6225Z" fill="#F4CD0C"/>
<path d="M36.5948 95.7179C36.9706 95.7179 37.2753 95.4134 37.2753 95.0378C37.2753 94.6622 36.9706 94.3577 36.5948 94.3577C36.219 94.3577 35.9143 94.6622 35.9143 95.0378C35.9143 95.4134 36.219 95.7179 36.5948 95.7179Z" fill="#E29418"/>
<path d="M36.5948 102.774C36.9706 102.774 37.2753 102.47 37.2753 102.094C37.2753 101.719 36.9706 101.414 36.5948 101.414C36.219 101.414 35.9143 101.719 35.9143 102.094C35.9143 102.47 36.219 102.774 36.5948 102.774Z" fill="#E29418"/>
<path d="M72.7537 95.7179C73.1295 95.7179 73.4342 95.4134 73.4342 95.0378C73.4342 94.6622 73.1295 94.3577 72.7537 94.3577C72.3779 94.3577 72.0732 94.6622 72.0732 95.0378C72.0732 95.4134 72.3779 95.7179 72.7537 95.7179Z" fill="#E29418"/>
<path d="M72.7537 102.774C73.1295 102.774 73.4342 102.47 73.4342 102.094C73.4342 101.719 73.1295 101.414 72.7537 101.414C72.3779 101.414 72.0732 101.719 72.0732 102.094C72.0732 102.47 72.3779 102.774 72.7537 102.774Z" fill="#E29418"/>
<path d="M13.7971 9.70709C16.2521 9.41474 18.5374 8.30579 20.2856 6.55852C22.0338 4.81125 23.1434 2.52719 23.4359 0.073533C23.4387 0.0553357 23.448 0.0387507 23.462 0.0267717C23.476 0.0147927 23.4938 0.00820923 23.5122 0.00820923C23.5306 0.00820923 23.5485 0.0147927 23.5625 0.0267717C23.5765 0.0387507 23.5857 0.0553357 23.5885 0.073533C23.8811 2.52719 24.9906 4.81125 26.7388 6.55852C28.4871 8.30579 30.7724 9.41474 33.2274 9.70709C33.2456 9.70992 33.2622 9.71917 33.2742 9.73315C33.2861 9.74714 33.2927 9.76495 33.2927 9.78337C33.2927 9.80179 33.2861 9.81959 33.2742 9.83358C33.2622 9.84757 33.2456 9.85682 33.2274 9.85965C30.7734 10.1532 28.4893 11.2626 26.7422 13.0098C24.9951 14.7569 23.8863 17.0404 23.5941 19.4932C23.5912 19.5114 23.582 19.528 23.568 19.54C23.554 19.5519 23.5362 19.5585 23.5177 19.5585C23.4993 19.5585 23.4815 19.5519 23.4675 19.54C23.4535 19.528 23.4442 19.5114 23.4414 19.4932C23.1489 17.0396 22.0393 14.7555 20.2911 13.0082C18.5429 11.2609 16.2576 10.152 13.8026 9.85965C13.7842 9.85755 13.7672 9.84893 13.7547 9.83537C13.7421 9.82181 13.7348 9.8042 13.7342 9.78574C13.7335 9.76728 13.7395 9.74919 13.751 9.73476C13.7626 9.72033 13.7789 9.71051 13.7971 9.70709Z" fill="white"/>
<path d="M68.7152 67.5672C70.0957 67.402 71.3808 66.7779 72.364 65.7953C73.3472 64.8126 73.9715 63.5283 74.1369 62.1484C74.1369 62.1372 74.1413 62.1265 74.1493 62.1186C74.1572 62.1106 74.168 62.1062 74.1792 62.1062C74.1904 62.1062 74.2012 62.1106 74.2091 62.1186C74.217 62.1265 74.2215 62.1372 74.2215 62.1484C74.3868 63.5283 75.0112 64.8126 75.9944 65.7953C76.9776 66.7779 78.2626 67.402 79.6432 67.5672C79.6544 67.5672 79.6652 67.5717 79.6731 67.5796C79.681 67.5875 79.6855 67.5983 79.6855 67.6095C79.6855 67.6207 79.681 67.6314 79.6731 67.6394C79.6652 67.6473 79.6544 67.6518 79.6432 67.6518C78.2626 67.817 76.9776 68.441 75.9944 69.4237C75.0112 70.4064 74.3868 71.6907 74.2215 73.0705C74.2215 73.0817 74.217 73.0925 74.2091 73.1004C74.2012 73.1083 74.1904 73.1128 74.1792 73.1128C74.168 73.1128 74.1572 73.1083 74.1493 73.1004C74.1413 73.0925 74.1369 73.0817 74.1369 73.0705C73.9715 71.6907 73.3472 70.4064 72.364 69.4237C71.3808 68.441 70.0957 67.817 68.7152 67.6518C68.7039 67.6518 68.6932 67.6473 68.6852 67.6394C68.6773 67.6314 68.6729 67.6207 68.6729 67.6095C68.6729 67.5983 68.6773 67.5875 68.6852 67.5796C68.6932 67.5717 68.7039 67.5672 68.7152 67.5672Z" fill="white"/>
<path d="M0.0422567 44.1625C1.42322 44.3268 2.70876 44.9506 3.69214 45.9334C4.67552 46.9162 5.29959 48.2011 5.46398 49.5813C5.46605 49.5912 5.47147 49.6001 5.47934 49.6065C5.48721 49.6129 5.49705 49.6164 5.5072 49.6164C5.51735 49.6164 5.52719 49.6129 5.53507 49.6065C5.54294 49.6001 5.54836 49.5912 5.55042 49.5813C5.71451 48.201 6.33848 46.916 7.32192 45.9331C8.30536 44.9502 9.59107 44.3265 10.9722 44.1625C10.9821 44.1605 10.991 44.155 10.9974 44.1472C11.0038 44.1393 11.0073 44.1295 11.0073 44.1193C11.0073 44.1092 11.0038 44.0994 10.9974 44.0915C10.991 44.0836 10.9821 44.0782 10.9722 44.0761C9.59119 43.9118 8.30565 43.2881 7.32227 42.3053C6.33889 41.3224 5.71482 40.0376 5.55042 38.6574C5.54836 38.6474 5.54294 38.6385 5.53507 38.6321C5.52719 38.6257 5.51735 38.6222 5.5072 38.6222C5.49705 38.6222 5.48721 38.6257 5.47934 38.6321C5.47147 38.6385 5.46605 38.6474 5.46398 38.6574C5.29927 40.0375 4.6751 41.3221 3.69178 42.3049C2.70846 43.2877 1.42309 43.9115 0.0422567 44.0761C0.032318 44.0782 0.0233935 44.0836 0.0169862 44.0915C0.010579 44.0994 0.00708008 44.1092 0.00708008 44.1193C0.00708008 44.1295 0.010579 44.1393 0.0169862 44.1472C0.0233935 44.155 0.032318 44.1605 0.0422567 44.1625Z" fill="white"/>
</g>
<defs>
<clipPath id="clip0_18:1027">
<rect width="84" height="111" fill="white"/>
</clipPath>
</defs>
</svg>
